<?xml version="1.0" standalone="no"?>
<!DOCTYPE svg PUBLIC "-//W3C//DTD SVG 20010904//EN"
 "http://www.w3.org/TR/2001/REC-SVG-20010904/DTD/svg10.dtd">
<svg version="1.0" xmlns="http://www.w3.org/2000/svg"
 width="128.000000pt" height="128.000000pt" viewBox="0 0 128.000000 128.000000"
 preserveAspectRatio="xMidYMid meet">
<metadata>
Created by potrace 1.14, written by Peter Selinger 2001-2017
</metadata>
<g transform="translate(0.000000,128.000000) scale(0.100000,-0.100000)"
fill="#000000" stroke="none">
<path d="M746 1234 c-157 -25 -290 -64 -330 -95 l-27 -22 2 -129 c1 -71 8
-168 14 -215 l11 -85 -70 -56 c-107 -86 -125 -101 -202 -178 -177 -176 -162
-252 61 -320 33 -10 62 -21 65 -24 3 -3 16 -6 30 -6 14 -1 45 -5 70 -9 25 -4
51 -8 58 -8 6 0 12 -3 12 -6 0 -3 21 -7 48 -8 103 -4 158 -10 169 -16 5 -3 13
-3 17 0 4 4 15 8 26 10 11 1 25 4 32 5 20 5 98 58 98 68 0 5 9 12 20 15 11 4
18 11 15 16 -4 5 2 9 11 9 10 0 15 3 11 6 -3 3 11 23 31 44 20 21 48 52 61 69
14 16 29 27 34 24 6 -3 7 -1 3 6 -7 10 47 91 66 99 5 2 8 10 8 18 0 8 7 17 15
20 8 4 12 10 9 15 -3 5 0 9 7 9 7 0 10 3 6 6 -3 3 3 15 14 27 10 11 19 27 19
34 0 7 4 13 9 13 9 0 20 22 22 45 0 6 5 15 10 21 9 11 6 410 -4 449 -2 11 -8
45 -11 76 -12 93 -13 94 -168 95 -93 0 -175 -6 -272 -22z"/>
</g>
</svg>
